<svg width="102" height="85" viewBox="0 0 102 85" fill="none" xmlns="http://www.w3.org/2000/svg">
<path fill-rule="evenodd" clip-rule="evenodd" d="M98.6526 56.867C98.1326 56.277 96.9026 54.557 96.0526 52.287C93.5226 45.517 90.0126 34.267 89.4226 33.047C89.4226 33.047 96.9927 9.657 89.9426 2.937C87.1826 0.307003 69.1626 11.977 69.1626 11.977C63.7826 9.26701 57.7726 7.69701 51.3726 7.59701C44.9726 7.49701 38.9126 8.88699 33.4626 11.427C33.4626 11.427 16.4926 0.156999 13.7226 2.557C6.06262 9.177 12.5727 31.867 12.5727 31.867C12.0527 32.887 9.02263 41.157 6.92263 47.997C5.73263 51.897 3.52263 54.557 2.73263 55.387C-0.567374 58.887 8.20266 61.217 10.7627 59.547C10.7627 59.547 8.80263 64.567 11.4826 68.677C14.1626 72.787 15.9827 67.807 16.0127 67.787C23.5327 76.507 36.0026 81.757 50.2326 81.977C64.4626 82.197 77.0926 77.327 84.8726 68.847C84.9026 68.867 86.5726 73.897 89.3726 69.867C92.1726 65.837 90.4826 60.577 90.4826 60.577C92.9926 62.317 101.843 60.447 98.6526 56.847V56.867Z" fill="#878CA2"/>
<path fill-rule="evenodd" clip-rule="evenodd" d="M55.2024 7.84707L54.9024 27.2771C54.8624 30.1271 53.1024 32.4271 50.9924 32.3971C48.8924 32.3671 47.2024 30.0071 47.2424 27.1571L47.5424 7.72707C48.8024 7.62707 50.0824 7.58705 51.3724 7.60705C52.6624 7.62705 53.9424 7.70707 55.2024 7.84707Z" fill="#4A4C58"/>
<path fill-rule="evenodd" clip-rule="evenodd" d="M66.2422 10.647L66.0723 21.737C66.0323 24.147 64.5922 26.107 62.8622 26.077C61.1322 26.047 59.7522 24.057 59.7822 21.637L59.9822 8.64697C62.1422 9.14697 64.2222 9.81697 66.2422 10.647Z" fill="#4A4C58"/>
<path fill-rule="evenodd" clip-rule="evenodd" d="M42.7424 8.38721L42.5424 21.3772C42.5024 23.7872 41.0624 25.7472 39.3324 25.7172C37.6024 25.6872 36.2224 23.6972 36.2524 21.2772L36.4224 10.1872C38.4624 9.42723 40.5724 8.81721 42.7424 8.38721Z" fill="#4A4C58"/>
<path d="M87.2726 71.2768C86.3426 71.2368 84.7926 68.9468 84.8726 68.8668C81.4726 72.0868 76.1426 76.0268 71.9326 77.8668C65.4126 80.7168 58.3026 81.9969 51.2126 82.0069C44.2826 82.0069 37.3326 80.9269 30.9326 78.2269C25.3026 75.8569 20.0326 72.4468 16.0226 67.8068C16.1126 67.9168 15.5326 70.3568 13.6826 70.3168C11.8326 70.2768 8.22258 65.0868 10.7726 59.5668C13.1026 60.8168 19.8526 61.1268 23.6726 60.4268C36.4826 58.0668 39.1926 49.2969 50.7326 49.4769C62.2726 49.6569 66.0326 58.9769 77.4526 61.2569C81.2526 62.0169 87.9226 62.4768 90.4926 60.6068C92.0926 65.8268 89.9526 71.3968 87.2826 71.2768H87.2726Z" fill="white"/>
<path fill-rule="evenodd" clip-rule="evenodd" d="M28.3728 15.7369C29.2028 16.5969 29.1328 17.9869 28.1828 18.7069C19.1228 25.5869 13.9828 33.2569 13.9528 33.0369C13.0828 28.1769 10.3028 19.3669 10.2328 17.6069C9.85278 12.5169 9.8328 6.94688 11.5728 4.04688C12.0128 4.19688 21.1028 8.19688 28.3728 15.7369Z" fill="#FD8A9A"/>
<path fill-rule="evenodd" clip-rule="evenodd" d="M92.2028 18.8471C92.0728 20.6271 88.6328 28.7271 87.6228 33.5671C87.5728 33.7871 84.7528 25.7871 76.3428 18.6571C75.4628 17.9071 75.4528 16.5671 76.2728 15.7471C83.5228 8.42707 90.8228 5.38707 91.2828 5.24707C92.9328 8.21707 92.7328 13.7871 92.2028 18.8471Z" fill="#FD8A9A"/>
<path fill-rule="evenodd" clip-rule="evenodd" d="M98.6529 56.867C98.1329 56.277 96.9029 54.5571 96.0529 52.2871C93.5329 45.5671 90.0629 34.447 89.4429 33.087C89.5029 32.867 89.5829 32.657 89.6329 32.437C90.6529 27.607 92.0829 20.617 92.2129 18.857C93.0429 11.017 93.0329 2.00705 86.7329 3.22705C80.7829 4.37705 73.1129 9.22703 69.1829 11.987C63.8029 9.27703 57.7929 7.70703 51.3929 7.60703C44.9929 7.50703 38.9329 8.89705 33.4829 11.437C29.6329 8.55705 22.1129 3.47704 16.2029 2.14704C9.93291 0.737038 9.65288 9.73703 10.2429 17.607C10.3129 19.377 11.5329 26.407 12.4029 31.267C12.4429 31.487 12.5129 31.707 12.5729 31.927C12.0129 33.067 9.0229 41.247 6.9429 48.017C5.7529 51.917 3.5429 54.577 2.7629 55.407C-0.537097 58.907 8.23287 61.2371 10.7929 59.5671C10.7929 59.5671 8.8329 64.587 11.5129 68.697C14.1929 72.807 16.0129 67.827 16.0429 67.807C23.5629 76.527 36.0329 81.777 50.2629 81.997C64.4929 82.217 77.1229 77.347 84.9029 68.867C84.9329 68.887 86.6029 73.917 89.4029 69.887C92.2029 65.857 90.5129 60.597 90.5129 60.597C93.0229 62.337 101.873 60.467 98.6829 56.867H98.6529Z" stroke="#151727" stroke-width="4" stroke-linecap="round" stroke-linejoin="round"/>
<path d="M57.2527 62.6371C56.8027 67.2571 53.9327 69.7071 50.6027 69.6671C47.2627 69.6171 44.4528 67.2771 44.0728 62.4871C44.3828 62.5371 44.7227 62.5771 45.1027 62.5771C47.8727 62.6171 50.5827 59.7671 50.5827 59.7671C50.5827 59.7671 53.1928 62.7071 55.9528 62.7371C56.4428 62.7371 56.8728 62.6971 57.2628 62.6271L57.2527 62.6371Z" fill="#E0636C"/>
<path d="M57.2527 62.6371C56.8027 67.2571 53.9327 69.7071 50.6027 69.6671C47.2627 69.6171 44.4528 67.2771 44.0728 62.4871C44.3828 62.5371 44.7227 62.5771 45.1027 62.5771C47.8727 62.6171 50.5827 59.7671 50.5827 59.7671C50.5827 59.7671 53.1928 62.7071 55.9528 62.7371C56.4428 62.7371 56.8728 62.6971 57.2628 62.6271L57.2527 62.6371Z" stroke="#151727" stroke-width="2.73" stroke-linecap="round" stroke-linejoin="round"/>
<path d="M50.6527 54.8066L50.5728 59.7567C50.5728 59.7567 53.1828 62.6866 55.9528 62.7366C58.6228 62.7766 59.6727 61.2666 59.6727 61.2666" stroke="#151727" stroke-width="2.73" stroke-linecap="round" stroke-linejoin="round"/>
<path d="M50.6526 54.8066L50.5726 59.7567C50.5726 59.7567 47.8726 62.6067 45.1026 62.5667C42.4326 62.5267 41.4326 60.9866 41.4326 60.9866" stroke="#151727" stroke-width="2.73" stroke-linecap="round" stroke-linejoin="round"/>
<path fill-rule="evenodd" clip-rule="evenodd" d="M50.6928 52.0469C48.3928 52.0469 46.2728 52.6569 46.2628 53.4669C46.2428 55.0569 48.3128 58.1069 50.6028 58.2769C52.9028 58.1869 55.0628 55.1969 55.0928 53.6069C55.1028 52.7969 53.0028 52.1169 50.7028 52.0469H50.6928Z" fill="#151727"/>
<path d="M30.7226 53.3969C35.4391 53.3969 39.2626 49.5734 39.2626 44.8569C39.2626 40.1404 35.4391 36.3169 30.7226 36.3169C26.0061 36.3169 22.1826 40.1404 22.1826 44.8569C22.1826 49.5734 26.0061 53.3969 30.7226 53.3969Z" fill="#151727"/>
<path d="M33.0028 45.157C34.3228 45.157 35.3928 44.0869 35.3928 42.7669C35.3928 41.447 34.3228 40.377 33.0028 40.377C31.6828 40.377 30.6128 41.447 30.6128 42.7669C30.6128 44.0869 31.6828 45.157 33.0028 45.157Z" fill="white"/>
<path d="M70.8828 54.017C75.5993 54.017 79.4228 50.1935 79.4228 45.477C79.4228 40.7605 75.5993 36.937 70.8828 36.937C66.1663 36.937 62.3428 40.7605 62.3428 45.477C62.3428 50.1935 66.1663 54.017 70.8828 54.017Z" fill="#151727"/>
<path d="M68.663 45.7068C69.9829 45.7068 71.053 44.6367 71.053 43.3168C71.053 41.9968 69.9829 40.9268 68.663 40.9268C67.343 40.9268 66.2729 41.9968 66.2729 43.3168C66.2729 44.6367 67.343 45.7068 68.663 45.7068Z" fill="white"/>
</svg>
