<svg width="102" height="85" viewBox="0 0 102 85" fill="none" xmlns="http://www.w3.org/2000/svg">
<path fill-rule="evenodd" clip-rule="evenodd" d="M99.1399 57.3997C98.6199 56.8097 97.3899 55.0897 96.5399 52.8197C94.0099 46.0497 90.4999 34.7997 89.9099 33.5797C89.9099 33.5797 97.4799 10.1897 90.4299 3.46972C87.6699 0.839718 69.65 12.5097 69.65 12.5097C64.27 9.79973 58.2599 8.22972 51.8599 8.12972C45.4599 8.02972 39.3999 9.41971 33.9499 11.9597C33.9499 11.9597 16.9799 0.689713 14.2099 3.08971C6.54992 9.70971 13.0599 32.3997 13.0599 32.3997C12.5399 33.4197 9.50993 41.6897 7.40993 48.5297C6.21993 52.4297 4.00993 55.0897 3.21993 55.9197C-0.0800676 59.4197 8.68993 61.7497 11.2499 60.0797C11.2499 60.0797 9.28993 65.0997 11.9699 69.2097C14.6499 73.3197 16.4699 68.3397 16.4999 68.3197C24.0199 77.0397 36.4899 82.2897 50.7199 82.5097C64.9499 82.7297 77.5799 77.8597 85.3599 69.3797C85.3899 69.3997 87.0599 74.4297 89.8599 70.3997C92.6599 66.3697 90.9699 61.1097 90.9699 61.1097C93.4799 62.8497 102.33 60.9797 99.1399 57.3797V57.3997Z" fill="#878CA2"/>
<path fill-rule="evenodd" clip-rule="evenodd" d="M55.6897 8.37978L55.3897 27.8098C55.3497 30.6598 53.5897 32.9598 51.4797 32.9298C49.3797 32.8998 47.6897 30.5398 47.7297 27.6898L48.0297 8.25979C49.2897 8.15979 50.5697 8.11976 51.8597 8.13976C53.1497 8.15976 54.4297 8.23978 55.6897 8.37978Z" fill="#4A4C58"/>
<path fill-rule="evenodd" clip-rule="evenodd" d="M66.73 11.1797L66.56 22.2697C66.52 24.6797 65.08 26.6397 63.35 26.6097C61.62 26.5797 60.24 24.5897 60.27 22.1697L60.47 9.17969C62.63 9.67969 64.71 10.3497 66.73 11.1797Z" fill="#4A4C58"/>
<path fill-rule="evenodd" clip-rule="evenodd" d="M43.2297 8.91992L43.0297 21.9099C42.9897 24.3199 41.5498 26.2799 39.8198 26.2499C38.0898 26.2199 36.7097 24.2299 36.7397 21.8099L36.9098 10.7199C38.9498 9.95994 41.0597 9.34992 43.2297 8.91992Z" fill="#4A4C58"/>
<path d="M87.7599 71.8096C86.8299 71.7696 85.2799 69.4796 85.3599 69.3996C81.9599 72.6196 76.6299 76.5596 72.4199 78.3996C65.8999 81.2496 58.7899 82.5296 51.6999 82.5396C44.7699 82.5396 37.8199 81.4596 31.4199 78.7596C25.7899 76.3896 20.5199 72.9796 16.5099 68.3396C16.5999 68.4496 16.0199 70.8896 14.1699 70.8496C12.3199 70.7996 8.70989 65.6196 11.2599 60.0996C13.5899 61.3496 20.3399 61.6595 24.1599 60.9595C36.9699 58.5995 39.6799 49.8296 51.2199 50.0096C62.7599 50.1896 66.5199 59.5096 77.9399 61.7896C81.7399 62.5496 88.4099 63.0095 90.9799 61.1395C92.5799 66.3595 90.4399 71.9296 87.7699 71.8096H87.7599Z" fill="white"/>
<path fill-rule="evenodd" clip-rule="evenodd" d="M28.8601 16.2696C29.6901 17.1296 29.6201 18.5196 28.6701 19.2396C19.6101 26.1196 14.4701 33.7896 14.4401 33.5696C13.5701 28.7096 10.7901 19.8996 10.7201 18.1396C10.3401 13.0496 10.3201 7.47959 12.0601 4.57959C12.5001 4.72959 21.5901 8.72959 28.8601 16.2696Z" fill="#FD8A9A"/>
<path fill-rule="evenodd" clip-rule="evenodd" d="M92.6901 19.3798C92.5601 21.1598 89.1201 29.2598 88.1101 34.0998C88.0601 34.3198 85.2401 26.3198 76.8301 19.1898C75.9501 18.4398 75.9401 17.0998 76.7601 16.2798C84.0101 8.95978 91.3101 5.91979 91.7701 5.77979C93.4201 8.74979 93.2201 14.3198 92.6901 19.3798Z" fill="#FD8A9A"/>
<path fill-rule="evenodd" clip-rule="evenodd" d="M99.1397 57.3998C98.6197 56.8098 97.3897 55.0898 96.5397 52.8198C94.0197 46.0998 90.5497 34.9798 89.9297 33.6198C89.9897 33.3998 90.0697 33.1898 90.1197 32.9698C91.1397 28.1398 92.5697 21.1497 92.6997 19.3897C93.5297 11.5497 93.5197 2.53977 87.2197 3.75977C81.2697 4.90977 73.5997 9.75975 69.6697 12.5197C64.2897 9.80975 58.2797 8.23974 51.8797 8.13974C45.4797 8.03974 39.4197 9.42976 33.9697 11.9698C30.1197 9.08976 22.5997 4.00975 16.6897 2.67975C10.4197 1.26975 10.1397 10.2697 10.7297 18.1397C10.7997 19.9097 12.0197 26.9397 12.8897 31.7997C12.9297 32.0197 12.9997 32.2398 13.0597 32.4598C12.4997 33.5998 9.50971 41.7797 7.42971 48.5497C6.23971 52.4497 4.02972 55.1098 3.24972 55.9398C-0.0502824 59.4398 8.71972 61.7698 11.2797 60.0998C11.2797 60.0998 9.31972 65.1197 11.9997 69.2297C14.6797 73.3397 16.4997 68.3598 16.5297 68.3398C24.0497 77.0598 36.5197 82.3098 50.7497 82.5298C64.9797 82.7498 77.6097 77.8798 85.3897 69.3998C85.4197 69.4198 87.0897 74.4497 89.8897 70.4197C92.6897 66.3897 90.9997 61.1298 90.9997 61.1298C93.5097 62.8698 102.36 60.9998 99.1697 57.3998H99.1397Z" stroke="#151727" stroke-width="4" stroke-linecap="round" stroke-linejoin="round"/>
<path d="M51.1401 55.3398L51.0601 60.2899C51.0601 60.2899 53.6701 63.2198 56.4401 63.2698C59.1101 63.3098 60.16 61.7998 60.16 61.7998" stroke="#151727" stroke-width="2.72" stroke-linecap="round" stroke-linejoin="round"/>
<path d="M51.14 55.3398L51.0599 60.2899C51.0599 60.2899 48.3599 63.1399 45.5899 63.0999C42.9199 63.0599 41.9199 61.5198 41.9199 61.5198" stroke="#151727" stroke-width="2.72" stroke-linecap="round" stroke-linejoin="round"/>
<path fill-rule="evenodd" clip-rule="evenodd" d="M51.1801 52.5796C48.8801 52.5796 46.7601 53.1896 46.7501 53.9996C46.7301 55.5896 48.8001 58.6396 51.0901 58.8096C53.3901 58.7196 55.5502 55.7296 55.5802 54.1396C55.5902 53.3296 53.4901 52.6496 51.1901 52.5796H51.1801Z" fill="#151727"/>
<path d="M31.2001 53.9296C35.9166 53.9296 39.7401 50.1061 39.7401 45.3896C39.7401 40.6731 35.9166 36.8496 31.2001 36.8496C26.4836 36.8496 22.6602 40.6731 22.6602 45.3896C22.6602 50.1061 26.4836 53.9296 31.2001 53.9296Z" fill="#151727"/>
<path d="M33.4901 45.6897C34.81 45.6897 35.8801 44.6196 35.8801 43.2997C35.8801 41.9797 34.81 40.9097 33.4901 40.9097C32.1701 40.9097 31.1001 41.9797 31.1001 43.2997C31.1001 44.6196 32.1701 45.6897 33.4901 45.6897Z" fill="white"/>
<path d="M71.3598 54.5497C76.0763 54.5497 79.8998 50.7262 79.8998 46.0097C79.8998 41.2932 76.0763 37.4697 71.3598 37.4697C66.6433 37.4697 62.8198 41.2932 62.8198 46.0097C62.8198 50.7262 66.6433 54.5497 71.3598 54.5497Z" fill="#151727"/>
<path d="M69.1498 46.24C70.4697 46.24 71.5397 45.1699 71.5397 43.85C71.5397 42.53 70.4697 41.46 69.1498 41.46C67.8298 41.46 66.7598 42.53 66.7598 43.85C66.7598 45.1699 67.8298 46.24 69.1498 46.24Z" fill="white"/>
</svg>
