<svg width="102" height="85" viewBox="0 0 102 85" fill="none" xmlns="http://www.w3.org/2000/svg">
<path fill-rule="evenodd" clip-rule="evenodd" d="M98.6526 56.867C98.1326 56.277 96.9026 54.557 96.0526 52.287C93.5226 45.517 90.0126 34.267 89.4226 33.047C89.4226 33.047 96.9926 9.657 89.9426 2.937C87.1826 0.307003 69.1626 11.977 69.1626 11.977C63.7826 9.26701 57.7726 7.69701 51.3726 7.59701C44.9726 7.49701 38.9126 8.88699 33.4626 11.427C33.4626 11.427 16.4926 0.156999 13.7226 2.557C6.06262 9.177 12.5726 31.867 12.5726 31.867C12.0526 32.887 9.02263 41.157 6.92263 47.997C5.73263 51.897 3.52263 54.557 2.73263 55.387C-0.56737 58.887 8.2026 61.217 10.7626 59.547C10.7626 59.547 8.80263 64.567 11.4826 68.677C14.1626 72.787 15.9826 67.807 16.0126 67.787C23.5326 76.507 36.0026 81.757 50.2326 81.977C64.4626 82.197 77.0926 77.327 84.8726 68.847C84.9026 68.867 86.5726 73.897 89.3726 69.867C92.1726 65.837 90.4826 60.577 90.4826 60.577C92.9926 62.317 101.843 60.447 98.6526 56.847V56.867Z" fill="#878CA2"/>
<path fill-rule="evenodd" clip-rule="evenodd" d="M55.2029 7.84707L54.9029 27.2771C54.8629 30.1271 53.1029 32.4271 50.9929 32.3971C48.8929 32.3671 47.2029 30.0071 47.2429 27.1571L47.5429 7.72707C48.8029 7.62707 50.0829 7.58705 51.3729 7.60705C52.6629 7.62705 53.9429 7.70707 55.2029 7.84707Z" fill="#4A4C58"/>
<path fill-rule="evenodd" clip-rule="evenodd" d="M66.2427 10.647L66.0727 21.737C66.0327 24.147 64.5927 26.107 62.8627 26.077C61.1327 26.047 59.7527 24.057 59.7827 21.637L59.9827 8.64697C62.1427 9.14697 64.2227 9.81697 66.2427 10.647Z" fill="#4A4C58"/>
<path fill-rule="evenodd" clip-rule="evenodd" d="M42.7527 8.38721L42.5527 21.3772C42.5127 23.7872 41.0727 25.7472 39.3427 25.7172C37.6127 25.6872 36.2327 23.6972 36.2627 21.2772L36.4327 10.1872C38.4727 9.42723 40.5827 8.81721 42.7527 8.38721Z" fill="#4A4C58"/>
<path d="M87.2828 71.2768C86.3528 71.2368 84.8028 68.9468 84.8828 68.8668C81.4828 72.0868 76.1528 76.0268 71.9428 77.8668C65.4228 80.7168 58.3128 81.9969 51.2228 82.0069C44.2928 82.0069 37.3428 80.9269 30.9428 78.2269C25.3128 75.8569 20.0428 72.4468 16.0328 67.8068C16.1228 67.9168 15.5428 70.3568 13.6928 70.3168C11.8428 70.2768 8.23284 65.0868 10.7828 59.5668C13.1128 60.8168 19.8628 61.1268 23.6828 60.4268C36.4928 58.0668 39.2028 49.2969 50.7428 49.4769C62.2828 49.6569 66.0428 58.9769 77.4628 61.2569C81.2628 62.0169 87.9328 62.4768 90.5028 60.6068C92.1028 65.8268 89.9628 71.3968 87.2928 71.2768H87.2828Z" fill="white"/>
<path fill-rule="evenodd" clip-rule="evenodd" d="M28.3727 15.7369C29.2027 16.5969 29.1327 17.9869 28.1827 18.7069C19.1227 25.5869 13.9828 33.2569 13.9528 33.0369C13.0828 28.1769 10.3028 19.3669 10.2328 17.6069C9.85279 12.5169 9.83276 6.94688 11.5728 4.04688C12.0128 4.19688 21.1027 8.19688 28.3727 15.7369Z" fill="#FD8A9A"/>
<path fill-rule="evenodd" clip-rule="evenodd" d="M92.2125 18.8471C92.0825 20.6271 88.6425 28.7271 87.6325 33.5671C87.5825 33.7871 84.7625 25.7871 76.3525 18.6571C75.4725 17.9071 75.4625 16.5671 76.2825 15.7471C83.5325 8.42707 90.8325 5.38707 91.2925 5.24707C92.9425 8.21707 92.7425 13.7871 92.2125 18.8471Z" fill="#FD8A9A"/>
<path fill-rule="evenodd" clip-rule="evenodd" d="M98.6524 56.867C98.1324 56.277 96.9024 54.5571 96.0524 52.2871C93.5324 45.5671 90.0624 34.447 89.4424 33.087C89.5024 32.867 89.5824 32.657 89.6324 32.437C90.6524 27.607 92.0824 20.617 92.2124 18.857C93.0424 11.017 93.0324 2.00705 86.7324 3.22705C80.7824 4.37705 73.1124 9.22703 69.1824 11.987C63.8024 9.27703 57.7924 7.70703 51.3924 7.60703C44.9924 7.50703 38.9324 8.89705 33.4824 11.437C29.6324 8.55705 22.1124 3.47704 16.2024 2.14704C9.93241 0.737038 9.65239 9.73703 10.2424 17.607C10.3124 19.377 11.5324 26.407 12.4024 31.267C12.4424 31.487 12.5124 31.707 12.5724 31.927C12.0124 33.067 9.0224 41.247 6.9424 48.017C5.7524 51.917 3.54241 54.577 2.76241 55.407C-0.537589 58.907 8.23244 61.2371 10.7924 59.5671C10.7924 59.5671 8.83241 64.587 11.5124 68.697C14.1924 72.807 16.0124 67.827 16.0424 67.807C23.5624 76.527 36.0324 81.777 50.2624 81.997C64.4924 82.217 77.1224 77.347 84.9024 68.867C84.9324 68.887 86.6024 73.917 89.4024 69.887C92.2024 65.857 90.5124 60.597 90.5124 60.597C93.0224 62.337 101.872 60.467 98.6824 56.867H98.6524Z" stroke="#151727" stroke-width="4" stroke-linecap="round" stroke-linejoin="round"/>
<path d="M57.2625 62.6371C56.8125 67.2571 53.9425 69.7071 50.6125 69.6671C47.2725 69.6171 44.4625 67.2771 44.0825 62.4871C44.3925 62.5371 44.7325 62.5771 45.1125 62.5771C47.8825 62.6171 50.5925 59.7671 50.5925 59.7671C50.5925 59.7671 53.2025 62.7071 55.9625 62.7371C56.4525 62.7371 56.8825 62.6971 57.2725 62.6271L57.2625 62.6371Z" fill="#E0636C"/>
<path d="M57.2625 62.6371C56.8125 67.2571 53.9425 69.7071 50.6125 69.6671C47.2725 69.6171 44.4625 67.2771 44.0825 62.4871C44.3925 62.5371 44.7325 62.5771 45.1125 62.5771C47.8825 62.6171 50.5925 59.7671 50.5925 59.7671C50.5925 59.7671 53.2025 62.7071 55.9625 62.7371C56.4525 62.7371 56.8825 62.6971 57.2725 62.6271L57.2625 62.6371Z" stroke="#151727" stroke-width="2.73" stroke-linecap="round" stroke-linejoin="round"/>
<path d="M50.6528 54.8066L50.5728 59.7567C50.5728 59.7567 53.1828 62.6866 55.9528 62.7366C58.6228 62.7766 59.6728 61.2666 59.6728 61.2666" stroke="#151727" stroke-width="2.73" stroke-linecap="round" stroke-linejoin="round"/>
<path d="M50.6526 54.8066L50.5726 59.7567C50.5726 59.7567 47.8727 62.6067 45.1027 62.5667C42.4327 62.5267 41.4326 60.9866 41.4326 60.9866" stroke="#151727" stroke-width="2.73" stroke-linecap="round" stroke-linejoin="round"/>
<path fill-rule="evenodd" clip-rule="evenodd" d="M50.7026 52.0469C48.4026 52.0469 46.2826 52.6569 46.2726 53.4669C46.2526 55.0569 48.3226 58.1069 50.6126 58.2769C52.9126 58.1869 55.0726 55.1969 55.1026 53.6069C55.1126 52.7969 53.0126 52.1169 50.7126 52.0469H50.7026Z" fill="#151727"/>
<path d="M23.1626 47.1769C23.2226 42.9969 26.6626 39.6669 30.8426 39.7269C35.0226 39.7869 38.3526 43.2269 38.2926 47.4069" stroke="#151727" stroke-width="3.69" stroke-linecap="round" stroke-linejoin="round"/>
<path d="M63.3228 47.1769C63.3828 42.9969 66.8227 39.6669 71.0027 39.7269C75.1827 39.7869 78.5128 43.2269 78.4528 47.4069" stroke="#151727" stroke-width="3.69" stroke-linecap="round" stroke-linejoin="round"/>
</svg>
