<svg width="102" height="85" viewBox="0 0 102 85" fill="none" xmlns="http://www.w3.org/2000/svg">
<path fill-rule="evenodd" clip-rule="evenodd" d="M98.6526 56.867C98.1326 56.277 96.9026 54.557 96.0526 52.287C93.5226 45.517 90.0126 34.267 89.4226 33.047C89.4226 33.047 96.9926 9.657 89.9426 2.937C87.1826 0.307003 69.1626 11.977 69.1626 11.977C63.7826 9.26701 57.7726 7.69701 51.3726 7.59701C44.9726 7.49701 38.9126 8.88699 33.4626 11.427C33.4626 11.427 16.4926 0.156999 13.7226 2.557C6.06263 9.177 12.5726 31.867 12.5726 31.867C12.0526 32.887 9.02263 41.157 6.92263 47.997C5.73263 51.897 3.52263 54.557 2.73263 55.387C-0.567372 58.887 8.20263 61.217 10.7626 59.547C10.7626 59.547 8.80263 64.567 11.4826 68.677C14.1626 72.787 15.9826 67.807 16.0126 67.787C23.5326 76.507 36.0026 81.757 50.2326 81.977C64.4626 82.197 77.0926 77.327 84.8726 68.847C84.9026 68.867 86.5726 73.897 89.3726 69.867C92.1726 65.837 90.4826 60.577 90.4826 60.577C92.9926 62.317 101.843 60.447 98.6526 56.847V56.867Z" fill="#878CA2"/>
<path fill-rule="evenodd" clip-rule="evenodd" d="M55.2024 7.84707L54.9024 27.2771C54.8624 30.1271 53.1024 32.4271 50.9924 32.3971C48.8924 32.3671 47.2024 30.0071 47.2424 27.1571L47.5424 7.72707C48.8024 7.62707 50.0824 7.58705 51.3724 7.60705C52.6624 7.62705 53.9424 7.70707 55.2024 7.84707Z" fill="#4A4C58"/>
<path fill-rule="evenodd" clip-rule="evenodd" d="M66.2422 10.647L66.0722 21.737C66.0322 24.147 64.5922 26.107 62.8622 26.077C61.1322 26.047 59.7522 24.057 59.7822 21.637L59.9822 8.64697C62.1422 9.14697 64.2222 9.81697 66.2422 10.647Z" fill="#4A4C58"/>
<path fill-rule="evenodd" clip-rule="evenodd" d="M42.7424 8.38721L42.5424 21.3772C42.5024 23.7872 41.0624 25.7472 39.3324 25.7172C37.6024 25.6872 36.2224 23.6972 36.2524 21.2772L36.4224 10.1872C38.4624 9.42723 40.5724 8.81721 42.7424 8.38721Z" fill="#4A4C58"/>
<path d="M87.2726 71.2768C86.3426 71.2368 84.7926 68.9468 84.8726 68.8668C81.4726 72.0868 76.1426 76.0268 71.9326 77.8668C65.4126 80.7168 58.3026 81.9969 51.2126 82.0069C44.2826 82.0069 37.3326 80.9269 30.9326 78.2269C25.3026 75.8569 20.0326 72.4468 16.0226 67.8068C16.1126 67.9168 15.5326 70.3568 13.6826 70.3168C11.8326 70.2668 8.22258 65.0868 10.7726 59.5668C13.1026 60.8168 19.8526 61.1268 23.6726 60.4268C36.4826 58.0668 39.1926 49.2969 50.7326 49.4769C62.2726 49.6569 66.0326 58.9769 77.4526 61.2569C81.2526 62.0169 87.9226 62.4768 90.4926 60.6068C92.0926 65.8268 89.9526 71.3968 87.2826 71.2768H87.2726Z" fill="white"/>
<path fill-rule="evenodd" clip-rule="evenodd" d="M28.3625 15.7369C29.1925 16.5969 29.1225 17.9869 28.1725 18.7069C19.1125 25.5869 13.9725 33.2569 13.9425 33.0369C13.0725 28.1769 10.2925 19.3669 10.2225 17.6069C9.84253 12.5169 9.82253 6.94688 11.5625 4.04688C12.0025 4.19688 21.0925 8.19688 28.3625 15.7369Z" fill="#FD8A9A"/>
<path fill-rule="evenodd" clip-rule="evenodd" d="M92.2028 18.8471C92.0728 20.6271 88.6328 28.7271 87.6228 33.5671C87.5728 33.7871 84.7528 25.7871 76.3428 18.6571C75.4628 17.9071 75.4528 16.5671 76.2728 15.7471C83.5228 8.42707 90.8228 5.38707 91.2828 5.24707C92.9328 8.21707 92.7328 13.7871 92.2028 18.8471Z" fill="#FD8A9A"/>
<path fill-rule="evenodd" clip-rule="evenodd" d="M98.6524 56.867C98.1324 56.277 96.9024 54.5571 96.0524 52.2871C93.5324 45.5671 90.0624 34.447 89.4424 33.087C89.5024 32.867 89.5824 32.657 89.6324 32.437C90.6524 27.607 92.0824 20.617 92.2124 18.857C93.0424 11.017 93.0324 2.00705 86.7324 3.22705C80.7824 4.37705 73.1124 9.22703 69.1824 11.987C63.8024 9.27703 57.7924 7.70703 51.3924 7.60703C44.9924 7.50703 38.9324 8.89705 33.4824 11.437C29.6324 8.55705 22.1124 3.47704 16.2024 2.14704C9.93242 0.737038 9.65241 9.73703 10.2424 17.607C10.3124 19.377 11.5324 26.407 12.4024 31.267C12.4424 31.487 12.5124 31.707 12.5724 31.927C12.0124 33.067 9.02241 41.247 6.94241 48.017C5.75241 51.917 3.54241 54.577 2.76241 55.407C-0.537587 58.907 8.23242 61.2371 10.7924 59.5671C10.7924 59.5671 8.83241 64.587 11.5124 68.697C14.1924 72.807 16.0124 67.827 16.0424 67.807C23.5624 76.527 36.0324 81.777 50.2624 81.997C64.4924 82.217 77.1224 77.347 84.9024 68.867C84.9324 68.887 86.6024 73.917 89.4024 69.887C92.2024 65.857 90.5124 60.597 90.5124 60.597C93.0224 62.337 101.872 60.467 98.6824 56.867H98.6524Z" stroke="#151727" stroke-width="4" stroke-linecap="round" stroke-linejoin="round"/>
<path fill-rule="evenodd" clip-rule="evenodd" d="M63.0226 48.4469C64.6326 52.8569 69.5226 55.1269 73.9326 53.5069C78.3426 51.8969 80.6126 47.0069 78.9926 42.5969C77.3826 38.1869 73.6026 38.9369 69.1926 40.5569C64.7826 42.1669 61.4126 44.0369 63.0226 48.4469Z" fill="#151727"/>
<path d="M68.5828 45.4268C69.8199 45.4268 70.8228 44.4239 70.8228 43.1868C70.8228 41.9497 69.8199 40.9468 68.5828 40.9468C67.3457 40.9468 66.3428 41.9497 66.3428 43.1868C66.3428 44.4239 67.3457 45.4268 68.5828 45.4268Z" fill="white"/>
<path fill-rule="evenodd" clip-rule="evenodd" d="M38.6527 48.4469C37.0427 52.8569 32.1527 55.1269 27.7427 53.5069C23.3327 51.8969 21.0627 47.0069 22.6827 42.5969C24.2927 38.1869 28.0727 38.9369 32.4827 40.5569C36.8927 42.1669 40.2627 44.0369 38.6527 48.4469Z" fill="#151727"/>
<path fill-rule="evenodd" clip-rule="evenodd" d="M35.3325 43.1868C35.3325 44.4268 34.3325 45.4268 33.0925 45.4268C31.8525 45.4268 30.8525 44.4268 30.8525 43.1868C30.8525 41.9468 31.8525 40.9468 33.0925 40.9468C34.3325 40.9468 35.3325 41.9468 35.3325 43.1868Z" fill="white"/>
<path fill-rule="evenodd" clip-rule="evenodd" d="M50.6928 49.4668C48.3928 49.4668 46.2728 50.0768 46.2628 50.8868C46.2428 52.4768 48.3128 55.5268 50.6028 55.6968C52.9028 55.6068 55.0628 52.6168 55.0928 51.0268C55.1028 50.2168 53.0028 49.5368 50.7028 49.4668H50.6928Z" fill="#151727"/>
<path d="M50.7129 54.2666V57.4666" stroke="#151727" stroke-width="2" stroke-linecap="round" stroke-linejoin="round"/>
<path d="M59.0028 62.3768C59.0028 63.9268 57.5328 65.0068 56.0228 64.6268C54.3228 64.1968 52.5428 63.9668 50.7028 63.9668C48.8628 63.9668 47.0828 64.1968 45.3828 64.6268C43.8728 65.0068 42.4028 63.9368 42.4028 62.3768C42.4028 61.4168 42.9828 60.5568 43.8728 60.2068L50.6928 57.4668L57.5128 60.2068C58.4028 60.5668 58.9828 61.4268 58.9828 62.3768H59.0028Z" fill="white"/>
<path d="M59.0028 62.3768C59.0028 63.9268 57.5328 65.0068 56.0228 64.6268C54.3228 64.1968 52.5428 63.9668 50.7028 63.9668C48.8628 63.9668 47.0828 64.1968 45.3828 64.6268C43.8728 65.0068 42.4028 63.9368 42.4028 62.3768C42.4028 61.4168 42.9828 60.5568 43.8728 60.2068L50.6928 57.4668L57.5128 60.2068C58.4028 60.5668 58.9828 61.4268 58.9828 62.3768H59.0028Z" stroke="#151727" stroke-width="2" stroke-linecap="round" stroke-linejoin="round"/>
</svg>
